<svg width="32" height="32" viewBox="0 0 32 32" fill="none" xmlns="http://www.w3.org/2000/svg">
<path d="M13.0007 16C13.0007 14.3432 14.3435 12.9998 16.0004 12.9998C17.6572 12.9998 19.0007 14.3432 19.0007 16C19.0007 17.6568 17.6572 19.0002 16.0004 19.0002C14.3435 19.0002 13.0007 17.6568 13.0007 16ZM11.3788 16C11.3788 18.5524 13.4479 20.6214 16.0004 20.6214C18.5529 20.6214 20.6219 18.5524 20.6219 16C20.6219 13.4476 18.5529 11.3786 16.0004 11.3786C13.4479 11.3786 11.3788 13.4476 11.3788 16ZM19.7249 11.1954C19.7248 11.409 19.788 11.6178 19.9066 11.7955C20.0252 11.9731 20.1939 12.1116 20.3912 12.1934C20.5885 12.2752 20.8057 12.2967 21.0152 12.2551C21.2247 12.2135 21.4172 12.1108 21.5683 11.9598C21.7194 11.8088 21.8223 11.6164 21.8641 11.4069C21.9059 11.1974 21.8846 10.9803 21.8029 10.7829C21.7212 10.5855 21.5829 10.4168 21.4053 10.2981C21.2277 10.1793 21.0189 10.1159 20.8053 10.1158H20.8049C20.5186 10.1159 20.244 10.2297 20.0415 10.4321C19.839 10.6345 19.7251 10.909 19.7249 11.1954ZM12.3642 23.3258C11.4867 23.2858 11.0098 23.1397 10.6928 23.0162C10.2726 22.8526 9.97278 22.6578 9.65755 22.343C9.34233 22.0282 9.1472 21.7287 8.98433 21.3085C8.86077 20.9917 8.7146 20.5146 8.67472 19.6372C8.63108 18.6885 8.62237 18.4035 8.62237 16.0001C8.62237 13.5966 8.6318 13.3125 8.67472 12.363C8.71468 11.4855 8.86192 11.0094 8.98433 10.6917C9.14792 10.2715 9.34276 9.97166 9.65755 9.65644C9.97235 9.34122 10.2719 9.1461 10.6928 8.98324C11.0096 8.85969 11.4867 8.71353 12.3642 8.67364C13.3129 8.63001 13.5979 8.6213 16.0004 8.6213C18.4028 8.6213 18.6881 8.63073 19.6376 8.67364C20.5151 8.7136 20.9912 8.86084 21.309 8.98324C21.7292 9.1461 22.029 9.34166 22.3442 9.65644C22.6595 9.97122 22.8539 10.2715 23.0175 10.6917C23.141 11.0085 23.2872 11.4855 23.3271 12.363C23.3707 13.3125 23.3794 13.5966 23.3794 16.0001C23.3794 18.4035 23.3707 18.6877 23.3271 19.6372C23.2871 20.5146 23.1402 20.9915 23.0175 21.3085C22.8539 21.7287 22.659 22.0285 22.3442 22.343C22.0295 22.6575 21.7292 22.8526 21.309 23.0162C20.9922 23.1397 20.5151 23.2859 19.6376 23.3258C18.6889 23.3694 18.4039 23.3781 16.0004 23.3781C13.5968 23.3781 13.3126 23.3694 12.3642 23.3258ZM12.2897 7.0545C11.3315 7.09814 10.6768 7.25006 10.1051 7.47254C9.5129 7.70229 9.01162 8.01052 8.51069 8.51063C8.00977 9.01074 7.70232 9.5128 7.47255 10.1049C7.25007 10.677 7.09814 11.3314 7.05451 12.2895C7.01015 13.2491 7 13.5559 7 16C7 18.4441 7.01015 18.7509 7.05451 19.7105C7.09814 20.6687 7.25007 21.323 7.47255 21.8951C7.70232 22.4868 8.00984 22.9895 8.51069 23.4894C9.01154 23.9893 9.5129 24.2971 10.1051 24.5275C10.6779 24.7499 11.3315 24.9019 12.2897 24.9455C13.2499 24.9891 13.5562 25 16.0004 25C18.4446 25 18.7514 24.9898 19.711 24.9455C20.6692 24.9019 21.3235 24.7499 21.8957 24.5275C22.4875 24.2971 22.9891 23.9895 23.49 23.4894C23.991 22.9893 24.2978 22.4868 24.5282 21.8951C24.7507 21.323 24.9033 20.6686 24.9462 19.7105C24.9898 18.7502 25 18.4441 25 16C25 13.5559 24.9898 13.2491 24.9462 12.2895C24.9026 11.3313 24.7507 10.6767 24.5282 10.1049C24.2978 9.51316 23.9902 9.01154 23.49 8.51063C22.9899 8.00973 22.4875 7.70229 21.8964 7.47254C21.3235 7.25006 20.6692 7.09742 19.7117 7.0545C18.7521 7.01087 18.4453 7 16.0011 7C13.5569 7 13.2499 7.01015 12.2897 7.0545Z" fill="white"/>
</svg>
