<svg width="28" height="28" viewBox="0 0 28 28" fill="none" xmlns="http://www.w3.org/2000/svg">
<path d="M12.5417 4.08337C17.2131 4.08337 21 7.8703 21 12.5417C21 14.4565 20.3638 16.2226 19.2912 17.6403L24.1583 22.5084C24.6139 22.964 24.6139 23.7027 24.1583 24.1583C23.7027 24.6139 22.964 24.6139 22.5084 24.1583L17.6403 19.2912C16.2226 20.3638 14.4564 21 12.5417 21C7.87026 21 4.08334 17.2131 4.08334 12.5417C4.08334 7.8703 7.87026 4.08337 12.5417 4.08337ZM12.5417 6.41671C9.15893 6.41671 6.41667 9.15896 6.41667 12.5417C6.41667 15.9245 9.15893 18.6667 12.5417 18.6667C15.9244 18.6667 18.6667 15.9245 18.6667 12.5417C18.6667 9.15896 15.9244 6.41671 12.5417 6.41671Z" fill="#BDBDBD"/>
</svg>
