<svg width="500" height="361" viewBox="0 0 500 361" fill="none" xmlns="http://www.w3.org/2000/svg">
<g clip-path="url(#clip0_1909:432)">
<path d="M499.277 358.231H0.722543C0.530913 358.231 0.347131 358.155 0.211627 358.02C0.0761243 357.885 0 357.701 0 357.509C0 357.318 0.0761243 357.134 0.211627 356.999C0.347131 356.863 0.530913 356.787 0.722543 356.787H499.277C499.469 356.787 499.653 356.863 499.788 356.999C499.924 357.134 500 357.318 500 357.509C500 357.701 499.924 357.885 499.788 358.02C499.653 358.155 499.469 358.231 499.277 358.231Z" fill="#4F4F4F"/>
<path d="M449.931 232.282H156.578C155.333 232.282 154.138 232.777 153.257 233.657C152.377 234.538 151.882 235.732 151.882 236.977C151.882 238.221 152.377 239.415 153.257 240.296C154.138 241.176 155.333 241.671 156.578 241.671H164.888V353.969C164.888 355.214 165.382 356.408 166.263 357.289C167.144 358.169 168.338 358.664 169.584 358.664C170.83 358.664 172.024 358.169 172.905 357.289C173.786 356.408 174.281 355.214 174.281 353.969L174.352 241.671H431.506V353.969C431.506 355.214 432.001 356.408 432.882 357.289C433.762 358.169 434.957 358.664 436.203 358.664C437.448 358.664 438.643 358.169 439.524 357.289C440.404 356.408 440.899 355.214 440.899 353.969V244.146L442.266 241.671H449.931C451.177 241.671 452.371 241.176 453.252 240.296C454.133 239.415 454.627 238.221 454.627 236.977C454.627 235.732 454.133 234.538 453.252 233.657C452.371 232.777 451.177 232.282 449.931 232.282Z" fill="#4F4F4F"/>
<path d="M319.215 234.739H230.356C228.635 234.737 226.986 234.053 225.769 232.837C224.552 231.621 223.868 229.972 223.866 228.253V179.355C223.868 177.635 224.552 175.986 225.769 174.77C226.986 173.554 228.635 172.87 230.356 172.868H319.215C320.936 172.87 322.586 173.554 323.802 174.77C325.019 175.986 325.703 177.635 325.705 179.355V228.253C325.703 229.972 325.019 231.621 323.802 232.837C322.586 234.053 320.936 234.737 319.215 234.739Z" fill="#3F3D56"/>
<path d="M319.215 177.86H230.356C229.96 177.861 229.58 178.019 229.299 178.299C229.019 178.579 228.861 178.959 228.861 179.355V228.254C228.861 228.65 229.019 229.03 229.3 229.31C229.58 229.59 229.96 229.748 230.356 229.749H319.215C319.611 229.748 319.991 229.59 320.271 229.31C320.552 229.03 320.71 228.65 320.71 228.254V179.355C320.71 178.959 320.552 178.579 320.271 178.299C319.991 178.019 319.611 177.861 319.215 177.86Z" fill="white"/>
<path d="M282.364 212.48C282.364 212.48 271.727 210.03 265.876 214.522C260.025 219.013 273.322 229.222 273.322 229.222L282.364 212.48Z" fill="#2F2E41"/>
<path d="M275.306 207.851C280.848 207.851 285.341 203.361 285.341 197.822C285.341 192.283 280.848 187.793 275.306 187.793C269.765 187.793 265.272 192.283 265.272 197.822C265.272 203.361 269.765 207.851 275.306 207.851Z" fill="#A0616A"/>
<path d="M267.547 183.744C268.217 182.609 269.186 181.681 270.35 181.062C271.514 180.443 272.826 180.158 274.142 180.237C275.518 180.41 276.861 180.785 278.127 181.352L284.686 183.91C286.384 184.571 288.243 185.382 288.979 187.048C289.663 188.593 289.153 190.379 288.636 191.988L286.182 199.638C285.91 197.907 285.444 196.212 284.792 194.585C284.129 192.947 282.931 191.582 281.392 190.711C279.689 189.837 277.68 189.856 275.768 189.948C273.059 190.078 270.113 190.422 268.189 192.332C267.167 193.417 266.474 194.769 266.191 196.231C265.913 197.686 265.772 199.164 265.772 200.645C264.661 198.736 263.726 196.731 262.977 194.654C262.36 193.108 262.009 191.468 261.938 189.805C261.873 188.127 262.43 186.485 263.502 185.192C264.046 184.561 264.755 184.093 265.551 183.843C266.346 183.593 267.196 183.57 268.004 183.776L267.547 183.744Z" fill="#2F2E41"/>
<path d="M299.265 221.177C299.171 220.838 298.979 220.534 298.713 220.304C298.447 220.074 298.119 219.928 297.77 219.884C297.746 219.868 297.722 219.853 297.697 219.84L282.718 211.45C282.29 211.211 281.787 211.145 281.312 211.267C280.837 211.389 280.427 211.69 280.169 212.106L276.072 218.736L269.901 212.568L269.803 212.47C269.486 212.154 269.068 211.959 268.622 211.92C268.176 211.881 267.73 212 267.364 212.257L255.053 220.873C255.031 220.873 255.009 220.88 254.988 220.88C254.399 220.979 253.861 221.275 253.463 221.72C253.064 222.165 252.83 222.732 252.798 223.329L252.48 229.749H301.642L299.265 221.177Z" fill="#2F80ED"/>
<path d="M326.704 228.751H317.218C317.218 228.487 317.113 228.233 316.926 228.046C316.739 227.859 316.485 227.754 316.22 227.754H313.225C312.96 227.754 312.706 227.859 312.519 228.046C312.332 228.233 312.226 228.487 312.226 228.751H309.231C309.231 228.487 309.126 228.233 308.939 228.046C308.751 227.859 308.497 227.754 308.233 227.754H305.237C304.973 227.754 304.719 227.859 304.531 228.046C304.344 228.233 304.239 228.487 304.239 228.751H301.244C301.244 228.487 301.139 228.233 300.951 228.046C300.764 227.859 300.51 227.754 300.245 227.754H297.25C296.985 227.754 296.731 227.859 296.544 228.046C296.357 228.233 296.252 228.487 296.252 228.751H293.256C293.256 228.487 293.151 228.233 292.964 228.046C292.777 227.859 292.523 227.754 292.258 227.754H289.263C288.998 227.754 288.744 227.859 288.557 228.046C288.369 228.233 288.264 228.487 288.264 228.751H285.269C285.269 228.487 285.164 228.233 284.977 228.046C284.789 227.859 284.535 227.754 284.271 227.754H281.275C281.01 227.754 280.757 227.859 280.569 228.046C280.382 228.233 280.277 228.487 280.277 228.751H277.282C277.282 228.487 277.176 228.233 276.989 228.046C276.802 227.859 276.548 227.754 276.283 227.754H273.288C273.023 227.754 272.769 227.859 272.582 228.046C272.395 228.233 272.289 228.487 272.289 228.751H269.294C269.294 228.487 269.189 228.233 269.002 228.046C268.814 227.859 268.561 227.754 268.296 227.754H265.3C265.036 227.754 264.782 227.859 264.594 228.046C264.407 228.233 264.302 228.487 264.302 228.751H261.307C261.307 228.487 261.202 228.233 261.014 228.046C260.827 227.859 260.573 227.754 260.308 227.754H257.313C257.048 227.754 256.794 227.859 256.607 228.046C256.42 228.233 256.315 228.487 256.315 228.751H253.319C253.319 228.487 253.214 228.233 253.027 228.046C252.84 227.859 252.586 227.754 252.321 227.754H249.326C249.061 227.754 248.807 227.859 248.62 228.046C248.432 228.233 248.327 228.487 248.327 228.751H245.332C245.332 228.487 245.227 228.233 245.04 228.046C244.852 227.859 244.598 227.754 244.334 227.754H241.338C241.074 227.754 240.82 227.859 240.632 228.046C240.445 228.233 240.34 228.487 240.34 228.751H237.345C237.345 228.487 237.239 228.233 237.052 228.046C236.865 227.859 236.611 227.754 236.346 227.754H233.351C233.086 227.754 232.832 227.859 232.645 228.046C232.458 228.233 232.352 228.487 232.352 228.751H222.867C222.074 228.753 221.313 229.069 220.752 229.63C220.192 230.191 219.877 230.952 219.877 231.745C219.877 232.538 220.192 233.299 220.752 233.86C221.313 234.422 222.074 234.738 222.867 234.739H326.704C327.498 234.739 328.26 234.424 328.821 233.862C329.383 233.301 329.699 232.539 329.699 231.745C329.699 230.951 329.383 230.19 328.821 229.628C328.26 229.067 327.498 228.751 326.704 228.751Z" fill="#3F3D56"/>
<path d="M207.427 211.366V231.244H157.599C156.264 231.291 154.933 231.068 153.686 230.589C152.439 230.111 151.301 229.386 150.34 228.459C149.379 227.531 148.615 226.42 148.093 225.191C147.571 223.962 147.302 222.64 147.302 221.305C147.302 219.97 147.571 218.648 148.093 217.419C148.615 216.19 149.379 215.079 150.34 214.152C151.301 213.224 152.439 212.499 153.686 212.021C154.933 211.542 156.264 211.319 157.599 211.366H207.427Z" fill="#828282"/>
<path d="M208.651 231.091C208.651 231.294 208.57 231.489 208.427 231.632C208.284 231.775 208.089 231.856 207.886 231.856H156.711C153.932 231.856 151.266 230.752 149.301 228.788C147.336 226.824 146.232 224.16 146.232 221.382C146.232 218.604 147.336 215.939 149.301 213.975C151.266 212.011 153.932 210.907 156.711 210.907H207.886C208.089 210.907 208.284 210.988 208.427 211.131C208.57 211.274 208.651 211.469 208.651 211.672C208.651 211.874 208.57 212.069 208.427 212.212C208.284 212.356 208.089 212.436 207.886 212.436H156.711C154.339 212.438 152.065 213.382 150.388 215.059C148.711 216.736 147.77 219.01 147.77 221.382C147.77 223.753 148.711 226.027 150.388 227.704C152.065 229.381 154.339 230.325 156.711 230.327H207.886C208.089 230.327 208.283 230.407 208.427 230.551C208.57 230.694 208.651 230.889 208.651 231.091Z" fill="#2F80ED"/>
<path d="M207.427 215.953H153.881C153.861 215.953 153.841 215.949 153.822 215.942C153.803 215.934 153.786 215.923 153.772 215.909C153.758 215.895 153.746 215.878 153.739 215.859C153.731 215.84 153.727 215.82 153.727 215.8C153.727 215.78 153.731 215.76 153.739 215.741C153.746 215.723 153.758 215.706 153.772 215.692C153.786 215.678 153.803 215.666 153.822 215.659C153.841 215.651 153.861 215.647 153.881 215.647H207.427C207.467 215.648 207.506 215.664 207.535 215.693C207.563 215.721 207.579 215.76 207.579 215.8C207.579 215.841 207.563 215.879 207.535 215.908C207.506 215.937 207.467 215.953 207.427 215.953Z" fill="#4F4F4F"/>
<path d="M207.427 219.623H153.881C153.861 219.623 153.841 219.619 153.822 219.612C153.803 219.604 153.786 219.593 153.772 219.579C153.758 219.564 153.746 219.548 153.739 219.529C153.731 219.51 153.727 219.49 153.727 219.47C153.727 219.45 153.731 219.43 153.739 219.411C153.746 219.393 153.758 219.376 153.772 219.362C153.786 219.347 153.803 219.336 153.822 219.329C153.841 219.321 153.861 219.317 153.881 219.317H207.427C207.467 219.318 207.506 219.334 207.535 219.362C207.563 219.391 207.579 219.43 207.579 219.47C207.579 219.511 207.563 219.549 207.535 219.578C207.506 219.607 207.467 219.623 207.427 219.623Z" fill="#4F4F4F"/>
<path d="M207.427 223.293H153.881C153.861 223.293 153.841 223.289 153.822 223.282C153.803 223.274 153.786 223.263 153.772 223.248C153.758 223.234 153.746 223.217 153.739 223.199C153.731 223.18 153.727 223.16 153.727 223.14C153.727 223.12 153.731 223.1 153.739 223.081C153.746 223.063 153.758 223.046 153.772 223.031C153.786 223.017 153.803 223.006 153.822 222.998C153.841 222.991 153.861 222.987 153.881 222.987H207.427C207.467 222.987 207.506 223.004 207.535 223.032C207.563 223.061 207.579 223.1 207.579 223.14C207.579 223.18 207.563 223.219 207.535 223.248C207.506 223.276 207.467 223.293 207.427 223.293Z" fill="#4F4F4F"/>
<path d="M207.427 226.963H153.881C153.861 226.963 153.841 226.959 153.822 226.951C153.803 226.944 153.786 226.933 153.772 226.918C153.758 226.904 153.746 226.887 153.739 226.869C153.731 226.85 153.727 226.83 153.727 226.81C153.727 226.79 153.731 226.77 153.739 226.751C153.746 226.733 153.758 226.716 153.772 226.701C153.786 226.687 153.803 226.676 153.822 226.668C153.841 226.661 153.861 226.657 153.881 226.657H207.427C207.467 226.657 207.506 226.674 207.535 226.702C207.563 226.731 207.579 226.77 207.579 226.81C207.579 226.85 207.563 226.889 207.535 226.918C207.506 226.946 207.467 226.963 207.427 226.963Z" fill="#4F4F4F"/>
<path d="M198.034 190.423V210.301H148.206C146.871 210.348 145.54 210.125 144.293 209.646C143.046 209.168 141.908 208.443 140.947 207.516C139.986 206.588 139.222 205.477 138.7 204.248C138.178 203.019 137.909 201.697 137.909 200.362C137.909 199.027 138.178 197.705 138.7 196.476C139.222 195.247 139.986 194.136 140.947 193.208C141.908 192.281 143.046 191.556 144.293 191.078C145.54 190.599 146.871 190.376 148.206 190.423H198.034Z" fill="#828282"/>
<path d="M199.258 210.148C199.258 210.351 199.177 210.545 199.034 210.689C198.89 210.832 198.696 210.913 198.493 210.913H147.318C145.942 210.913 144.579 210.642 143.308 210.115C142.036 209.589 140.881 208.818 139.908 207.845C138.935 206.872 138.163 205.718 137.636 204.447C137.11 203.176 136.839 201.814 136.839 200.438C136.839 199.063 137.11 197.701 137.636 196.43C138.163 195.159 138.935 194.005 139.908 193.032C140.881 192.059 142.036 191.288 143.308 190.761C144.579 190.235 145.942 189.964 147.318 189.964H198.493C198.696 189.964 198.89 190.045 199.034 190.188C199.177 190.331 199.258 190.526 199.258 190.729C199.258 190.931 199.177 191.126 199.034 191.269C198.89 191.413 198.696 191.493 198.493 191.493H147.318C144.946 191.495 142.672 192.439 140.995 194.116C139.318 195.793 138.376 198.067 138.376 200.438C138.376 202.809 139.318 205.084 140.995 206.761C142.672 208.438 144.946 209.382 147.318 209.384H198.493C198.696 209.384 198.89 209.464 199.034 209.608C199.177 209.751 199.258 209.946 199.258 210.148Z" fill="#3F3D56"/>
<path d="M198.034 195.01H144.488C144.468 195.01 144.448 195.006 144.429 194.999C144.41 194.991 144.393 194.98 144.379 194.966C144.365 194.951 144.353 194.934 144.346 194.916C144.338 194.897 144.334 194.877 144.334 194.857C144.334 194.837 144.338 194.817 144.346 194.798C144.353 194.78 144.365 194.763 144.379 194.749C144.393 194.734 144.41 194.723 144.429 194.715C144.448 194.708 144.468 194.704 144.488 194.704H198.034C198.074 194.704 198.113 194.721 198.142 194.749C198.17 194.778 198.186 194.817 198.186 194.857C198.186 194.897 198.17 194.936 198.142 194.965C198.113 194.993 198.074 195.01 198.034 195.01Z" fill="#4F4F4F"/>
<path d="M198.034 198.68H144.488C144.468 198.68 144.448 198.676 144.429 198.669C144.41 198.661 144.393 198.65 144.379 198.635C144.365 198.621 144.353 198.604 144.346 198.586C144.338 198.567 144.334 198.547 144.334 198.527C144.334 198.507 144.338 198.487 144.346 198.468C144.353 198.45 144.365 198.433 144.379 198.418C144.393 198.404 144.41 198.393 144.429 198.385C144.448 198.378 144.468 198.374 144.488 198.374H198.034C198.074 198.374 198.113 198.391 198.142 198.419C198.17 198.448 198.186 198.487 198.186 198.527C198.186 198.567 198.17 198.606 198.142 198.635C198.113 198.663 198.074 198.68 198.034 198.68Z" fill="#4F4F4F"/>
<path d="M198.034 202.35H144.488C144.468 202.35 144.448 202.346 144.429 202.338C144.41 202.331 144.393 202.32 144.379 202.305C144.365 202.291 144.353 202.274 144.346 202.256C144.338 202.237 144.334 202.217 144.334 202.197C144.334 202.177 144.338 202.157 144.346 202.138C144.353 202.119 144.365 202.103 144.379 202.088C144.393 202.074 144.41 202.063 144.429 202.055C144.448 202.048 144.468 202.044 144.488 202.044H198.034C198.074 202.044 198.113 202.06 198.142 202.089C198.17 202.118 198.186 202.156 198.186 202.197C198.186 202.237 198.17 202.276 198.142 202.305C198.113 202.333 198.074 202.349 198.034 202.35Z" fill="#4F4F4F"/>
<path d="M198.034 206.02H144.488C144.468 206.02 144.448 206.016 144.429 206.008C144.41 206.001 144.393 205.99 144.379 205.975C144.365 205.961 144.353 205.944 144.346 205.926C144.338 205.907 144.334 205.887 144.334 205.867C144.334 205.847 144.338 205.827 144.346 205.808C144.353 205.789 144.365 205.772 144.379 205.758C144.393 205.744 144.41 205.733 144.429 205.725C144.448 205.718 144.468 205.714 144.488 205.714H198.034C198.074 205.714 198.113 205.73 198.142 205.759C198.17 205.788 198.186 205.826 198.186 205.867C198.186 205.907 198.17 205.946 198.142 205.975C198.113 206.003 198.074 206.019 198.034 206.02Z" fill="#4F4F4F"/>
<path d="M255.999 301.902V284.569C255.999 283.803 255.695 283.068 255.153 282.527C254.611 281.985 253.876 281.681 253.109 281.681H187.358C186.591 281.681 185.856 281.985 185.314 282.527C184.772 283.068 184.468 283.803 184.468 284.569V301.902H255.999Z" fill="#4F4F4F"/>
<path d="M255.999 308.401H184.468V330.789H255.999V308.401Z" fill="#4F4F4F"/>
<path d="M184.468 337.288V354.621C184.468 355.387 184.772 356.121 185.314 356.663C185.856 357.205 186.591 357.509 187.358 357.509H253.109C253.876 357.509 254.611 357.205 255.153 356.663C255.695 356.121 255.999 355.387 255.999 354.621V337.288H184.468Z" fill="#4F4F4F"/>
<path d="M219.872 294.68C221.069 294.68 222.04 293.71 222.04 292.513C222.04 291.317 221.069 290.347 219.872 290.347C218.675 290.347 217.705 291.317 217.705 292.513C217.705 293.71 218.675 294.68 219.872 294.68Z" fill="white"/>
<path d="M219.872 323.567C221.069 323.567 222.04 322.597 222.04 321.4C222.04 320.204 221.069 319.234 219.872 319.234C218.675 319.234 217.705 320.204 217.705 321.4C217.705 322.597 218.675 323.567 219.872 323.567Z" fill="white"/>
<path d="M219.988 351.842C221.186 351.842 222.156 350.872 222.156 349.676C222.156 348.479 221.186 347.509 219.988 347.509C218.791 347.509 217.821 348.479 217.821 349.676C217.821 350.872 218.791 351.842 219.988 351.842Z" fill="white"/>
<path d="M247.889 261.918V281.797H198.061C196.726 281.843 195.396 281.621 194.149 281.142C192.901 280.663 191.764 279.939 190.803 279.011C189.842 278.084 189.078 276.972 188.556 275.743C188.034 274.514 187.765 273.193 187.765 271.858C187.765 270.522 188.034 269.201 188.556 267.972C189.078 266.743 189.842 265.632 190.803 264.704C191.764 263.777 192.901 263.052 194.149 262.573C195.396 262.095 196.726 261.872 198.061 261.918H247.889Z" fill="#828282"/>
<path d="M249.113 281.644C249.113 281.847 249.033 282.041 248.889 282.184C248.746 282.328 248.551 282.408 248.348 282.408H197.174C195.797 282.41 194.433 282.14 193.161 281.614C191.888 281.088 190.732 280.316 189.758 279.344C188.784 278.371 188.011 277.216 187.484 275.944C186.957 274.673 186.685 273.31 186.685 271.934C186.685 270.558 186.957 269.195 187.484 267.924C188.011 266.652 188.784 265.497 189.758 264.524C190.732 263.552 191.888 262.78 193.161 262.254C194.433 261.729 195.797 261.458 197.174 261.46H248.348C248.551 261.46 248.746 261.54 248.889 261.684C249.033 261.827 249.113 262.021 249.113 262.224C249.113 262.427 249.033 262.621 248.889 262.765C248.746 262.908 248.551 262.989 248.348 262.989H197.174C194.802 262.991 192.527 263.934 190.85 265.612C189.174 267.289 188.232 269.563 188.232 271.934C188.232 274.305 189.174 276.579 190.85 278.256C192.527 279.934 194.802 280.877 197.174 280.879H248.348C248.551 280.879 248.746 280.96 248.889 281.103C249.033 281.247 249.113 281.441 249.113 281.644Z" fill="#3F3D56"/>
<path d="M247.889 266.506H194.343C194.323 266.506 194.303 266.502 194.285 266.494C194.266 266.487 194.249 266.475 194.235 266.461C194.22 266.447 194.209 266.43 194.201 266.411C194.193 266.393 194.189 266.373 194.189 266.353C194.189 266.333 194.193 266.313 194.201 266.294C194.209 266.275 194.22 266.258 194.235 266.244C194.249 266.23 194.266 266.219 194.285 266.211C194.303 266.204 194.323 266.2 194.343 266.2H247.889C247.93 266.2 247.968 266.216 247.997 266.245C248.025 266.274 248.041 266.312 248.041 266.353C248.041 266.393 248.025 266.432 247.997 266.46C247.968 266.489 247.93 266.505 247.889 266.506Z" fill="#4F4F4F"/>
<path d="M247.889 270.176H194.343C194.323 270.176 194.303 270.172 194.285 270.164C194.266 270.157 194.249 270.145 194.235 270.131C194.22 270.117 194.209 270.1 194.201 270.081C194.193 270.063 194.189 270.043 194.189 270.023C194.189 270.002 194.193 269.983 194.201 269.964C194.209 269.945 194.22 269.928 194.235 269.914C194.249 269.9 194.266 269.889 194.285 269.881C194.303 269.873 194.323 269.87 194.343 269.87H247.889C247.93 269.87 247.968 269.886 247.997 269.915C248.025 269.944 248.041 269.982 248.041 270.023C248.041 270.063 248.025 270.102 247.997 270.13C247.968 270.159 247.93 270.175 247.889 270.176Z" fill="#4F4F4F"/>
<path d="M247.889 273.845H194.343C194.323 273.845 194.303 273.842 194.285 273.834C194.266 273.826 194.249 273.815 194.235 273.801C194.22 273.787 194.209 273.77 194.201 273.751C194.193 273.733 194.189 273.713 194.189 273.692C194.189 273.672 194.193 273.652 194.201 273.634C194.209 273.615 194.22 273.598 194.235 273.584C194.249 273.57 194.266 273.559 194.285 273.551C194.303 273.543 194.323 273.539 194.343 273.54H247.889C247.93 273.54 247.968 273.556 247.997 273.585C248.025 273.613 248.041 273.652 248.041 273.692C248.041 273.733 248.025 273.772 247.997 273.8C247.968 273.829 247.93 273.845 247.889 273.845Z" fill="#4F4F4F"/>
<path d="M247.889 277.515H194.343C194.323 277.515 194.303 277.512 194.285 277.504C194.266 277.496 194.249 277.485 194.235 277.471C194.22 277.457 194.209 277.44 194.201 277.421C194.193 277.403 194.189 277.383 194.189 277.362C194.189 277.342 194.193 277.322 194.201 277.304C194.209 277.285 194.22 277.268 194.235 277.254C194.249 277.24 194.266 277.228 194.285 277.221C194.303 277.213 194.323 277.209 194.343 277.209H247.889C247.93 277.21 247.968 277.226 247.997 277.255C248.025 277.283 248.041 277.322 248.041 277.362C248.041 277.403 248.025 277.442 247.997 277.47C247.968 277.499 247.93 277.515 247.889 277.515Z" fill="#4F4F4F"/>
<path d="M180.716 132.174V5.43182C180.717 3.99171 181.29 2.61106 182.309 1.59276C183.328 0.574449 184.709 0.00163807 186.15 0H286.388C287.828 0.00164761 289.21 0.574462 290.229 1.59277C291.247 2.61107 291.82 3.99172 291.822 5.43182V132.174C291.82 133.614 291.247 134.995 290.229 136.013C289.21 137.031 287.828 137.604 286.388 137.606H186.15C184.709 137.604 183.328 137.031 182.309 136.013C181.29 134.995 180.717 133.614 180.716 132.174ZM186.15 1.20707C185.029 1.20833 183.955 1.65384 183.163 2.44586C182.37 3.23788 181.925 4.31173 181.923 5.43182V132.174C181.925 133.294 182.37 134.368 183.163 135.16C183.955 135.952 185.029 136.398 186.15 136.399H286.388C287.508 136.398 288.583 135.952 289.375 135.16C290.167 134.368 290.613 133.294 290.614 132.174V5.43182C290.613 4.31173 290.167 3.23788 289.375 2.44586C288.583 1.65384 287.508 1.20833 286.388 1.20707H186.15Z" fill="#828282"/>
<path d="M241.89 58.2059V32.1817C241.891 31.4617 242.177 30.7713 242.687 30.2622C243.196 29.753 243.887 29.4666 244.607 29.4658H266.671C267.392 29.4666 268.083 29.753 268.592 30.2622C269.101 30.7713 269.388 31.4617 269.389 32.1817V58.2059C269.388 58.926 269.101 59.6163 268.592 60.1255C268.083 60.6346 267.392 60.921 266.671 60.9218H244.607C243.887 60.921 243.196 60.6346 242.687 60.1255C242.177 59.6163 241.891 58.926 241.89 58.2059Z" fill="#828282"/>
<path d="M199.017 70.2767V44.2525C199.018 43.5325 199.305 42.8421 199.814 42.333C200.323 41.8238 201.014 41.5374 201.734 41.5366H223.799C224.519 41.5374 225.21 41.8238 225.719 42.333C226.229 42.8421 226.515 43.5325 226.516 44.2525V70.2767C226.515 70.9968 226.229 71.6871 225.719 72.1963C225.21 72.7054 224.519 72.9918 223.799 72.9926H201.734C201.014 72.9918 200.323 72.7054 199.814 72.1962C199.304 71.6871 199.018 70.9967 199.017 70.2767Z" fill="#2F80ED"/>
<path d="M233.436 107.092V81.0681C233.437 80.348 233.723 79.6577 234.233 79.1485C234.742 78.6394 235.433 78.353 236.153 78.3522H258.218C258.938 78.353 259.629 78.6394 260.138 79.1485C260.648 79.6577 260.934 80.348 260.935 81.0681V107.092C260.934 107.812 260.648 108.503 260.138 109.012C259.629 109.521 258.938 109.807 258.218 109.808H236.153C235.433 109.807 234.742 109.521 234.233 109.012C233.723 108.503 233.437 107.812 233.436 107.092Z" fill="#F2C94C"/>
<path d="M365.291 226.073H342.589C342.373 226.073 342.161 226.122 341.968 226.217L336.238 229.084C336.049 229.164 335.888 229.298 335.775 229.469C335.662 229.64 335.602 229.84 335.602 230.045C335.602 230.25 335.662 230.45 335.775 230.621C335.888 230.792 336.049 230.925 336.238 231.005L341.968 233.872C342.161 233.968 342.373 234.017 342.589 234.017H365.291C365.604 234.035 365.911 233.929 366.147 233.722C366.382 233.516 366.526 233.224 366.549 232.912V227.178C366.526 226.865 366.382 226.574 366.147 226.367C365.911 226.161 365.604 226.055 365.291 226.073Z" fill="#3F3D56"/>
<path d="M366.549 227.178V232.912C366.526 233.224 366.382 233.515 366.147 233.722C365.911 233.929 365.604 234.035 365.291 234.017H360.768V226.073H365.291C365.604 226.055 365.911 226.161 366.147 226.367C366.382 226.574 366.526 226.865 366.549 227.178Z" fill="#2F80ED"/>
<path d="M365.12 183.175C366.149 182.732 367.259 182.51 368.379 182.526C369.499 182.541 370.603 182.793 371.619 183.264C372.634 183.736 373.539 184.416 374.273 185.262C375.008 186.107 375.555 187.098 375.879 188.169C375.98 188.509 376.058 188.855 376.111 189.205L407.858 204.94L415.205 200.074L424.346 210.593L413.128 219.699C411.779 220.786 410.115 221.409 408.384 221.475C406.653 221.542 404.946 221.049 403.517 220.07L371.307 197.806C371.067 197.908 370.823 197.997 370.574 198.073C369.502 198.397 368.373 198.491 367.262 198.349C366.151 198.207 365.083 197.832 364.127 197.248C363.171 196.664 362.35 195.885 361.716 194.962C361.082 194.039 360.651 192.992 360.45 191.891C360.391 191.571 360.352 191.248 360.333 190.924C360.244 189.298 360.655 187.684 361.51 186.299C362.366 184.914 363.626 183.824 365.12 183.175Z" fill="#FFB8B8"/>
<path d="M431.244 280.055H396.554C396.554 281.051 360.803 281.86 360.803 281.86C360.242 282.282 359.73 282.767 359.279 283.304C357.921 284.923 357.178 286.969 357.183 289.082V290.526C357.184 292.92 358.136 295.216 359.829 296.909C361.523 298.601 363.82 299.553 366.215 299.554H431.244C433.638 299.551 435.934 298.6 437.628 296.907C439.321 295.215 440.273 292.92 440.275 290.526V289.082C440.272 286.689 439.319 284.395 437.626 282.702C435.933 281.01 433.638 280.058 431.244 280.055Z" fill="#3F3D56"/>
<path d="M393.51 359.858H402.903V299.195H393.51V359.858Z" fill="#3F3D56"/>
<path d="M366.776 359.528C366.776 360.542 381.009 359.92 398.568 359.92C416.126 359.92 430.359 360.542 430.359 359.528C430.359 358.514 416.126 350.469 398.568 350.469C381.009 350.469 366.776 358.514 366.776 359.528Z" fill="#3F3D56"/>
<path d="M375.255 352.418L366.397 352.417L362.183 329.454L375.257 329.455L375.255 352.418Z" fill="#FFB8B8"/>
<path d="M377.514 361L348.952 360.999V360.638C348.952 359.179 349.239 357.734 349.798 356.386C350.357 355.037 351.176 353.812 352.208 352.781C353.24 351.749 354.466 350.93 355.815 350.372C357.164 349.814 358.609 349.526 360.069 349.526H360.07L377.515 349.527L377.514 361Z" fill="#2F2E41"/>
<path d="M362.006 338.178L344.347 298.597C342.872 295.261 342.709 291.492 343.89 288.041C345.071 284.591 347.509 281.711 350.718 279.976L389.023 259.446L406.502 257.96L422.625 256.496L422.742 256.692C422.89 256.943 426.357 262.928 424.014 269.491C422.236 274.468 417.613 278.356 410.272 281.047C393.137 287.326 373.343 292.693 365.628 294.709C365.287 294.796 364.969 294.954 364.694 295.173C364.418 295.393 364.192 295.667 364.031 295.98C363.869 296.289 363.773 296.628 363.748 296.976C363.724 297.324 363.772 297.673 363.889 298.001L380.295 334.843C380.467 335.31 380.528 335.81 380.476 336.305C380.423 336.8 380.257 337.276 379.991 337.697C379.725 338.118 379.366 338.472 378.942 338.732C378.517 338.992 378.039 339.151 377.543 339.197L365.284 340.089C365.18 340.099 365.076 340.104 364.973 340.104C364.345 340.104 363.731 339.922 363.204 339.58C362.678 339.238 362.262 338.751 362.006 338.178Z" fill="#2F2E41"/>
<path d="M379.59 352.418L370.733 352.417L366.518 329.454L379.592 329.455L379.59 352.418Z" fill="#FFB8B8"/>
<path d="M381.85 361L353.287 360.999V360.638C353.287 359.179 353.575 357.734 354.133 356.386C354.692 355.037 355.511 353.812 356.543 352.781C357.576 351.749 358.801 350.93 360.15 350.372C361.499 349.814 362.945 349.526 364.404 349.526H364.405L381.85 349.527L381.85 361Z" fill="#2F2E41"/>
<path d="M367.064 340.344L349.404 300.764C347.93 297.428 347.767 293.659 348.948 290.208C350.129 286.757 352.567 283.878 355.776 282.143L394.081 261.613L411.56 260.127L427.683 258.662L427.8 258.859C427.948 259.11 431.415 265.095 429.072 271.657C427.294 276.635 422.671 280.523 415.33 283.213C398.195 289.493 378.401 294.86 370.686 296.876C370.345 296.963 370.027 297.121 369.751 297.34C369.476 297.559 369.25 297.834 369.089 298.146C368.927 298.455 368.831 298.794 368.806 299.142C368.782 299.49 368.83 299.839 368.947 300.168L385.353 337.009C385.525 337.477 385.586 337.977 385.534 338.472C385.481 338.967 385.315 339.443 385.049 339.863C384.783 340.284 384.424 340.638 384 340.898C383.575 341.158 383.097 341.318 382.601 341.364L370.342 342.256C370.238 342.266 370.134 342.271 370.031 342.271C369.403 342.27 368.789 342.088 368.262 341.746C367.736 341.405 367.32 340.918 367.064 340.344Z" fill="#2F2E41"/>
<path d="M358.262 219.43C350.841 209.564 344.975 198.621 340.866 186.981C340.628 186.285 340.645 185.527 340.914 184.842C341.183 184.157 341.686 183.589 342.334 183.241L367.728 169.641C368.139 169.419 368.595 169.294 369.062 169.275C369.528 169.256 369.993 169.344 370.42 169.532C370.856 169.721 371.242 170.007 371.55 170.367C371.859 170.728 372.08 171.155 372.199 171.614C375.154 182.831 380.71 193.195 388.417 201.867C388.734 202.22 388.966 202.641 389.096 203.097C389.226 203.553 389.251 204.033 389.167 204.5C389.086 204.96 388.902 205.395 388.628 205.773C388.354 206.151 387.997 206.461 387.585 206.68L362.191 220.28C361.541 220.626 360.79 220.731 360.07 220.575C359.351 220.419 358.71 220.013 358.262 219.43Z" fill="#4F4F4F"/>
<path d="M359.995 218.128C360.131 218.299 360.323 218.416 360.537 218.46C360.751 218.504 360.974 218.472 361.167 218.37L386.561 204.77C386.684 204.706 386.791 204.614 386.873 204.502C386.955 204.389 387.009 204.259 387.033 204.122C387.059 203.978 387.052 203.829 387.011 203.687C386.97 203.546 386.897 203.416 386.798 203.308C378.864 194.38 373.145 183.711 370.102 172.164C370.067 172.021 369.999 171.889 369.904 171.776C369.809 171.664 369.689 171.576 369.554 171.517C369.427 171.461 369.288 171.434 369.149 171.44C369.01 171.445 368.874 171.483 368.752 171.551L343.358 185.15C343.166 185.254 343.016 185.422 342.934 185.625C342.852 185.827 342.844 186.052 342.911 186.26C346.945 197.692 352.707 208.439 359.995 218.128Z" fill="white"/>
<path d="M442.625 215.802L422.737 223.355L417.881 209.875C417.237 208.085 417.246 206.125 417.907 204.341C418.569 202.557 419.84 201.064 421.496 200.126C423.171 199.177 425.13 198.858 427.02 199.227C428.91 199.596 430.606 200.628 431.801 202.137L442.625 215.802Z" fill="#2F80ED"/>
<path d="M392.04 269.214C391.621 268.918 391.27 268.537 391.011 268.095C390.751 267.653 390.589 267.161 390.534 266.651C387.987 242.885 389.761 224.285 395.957 209.791C397.049 207.291 398.693 205.07 400.766 203.297C402.84 201.523 405.288 200.242 407.928 199.55L424.004 198.739L424.087 198.78C427.715 200.556 430.674 203.453 432.524 207.042C434.375 210.63 435.019 214.72 434.361 218.703C429.191 232.326 424.861 246.509 428.163 257.951C428.301 258.429 428.342 258.931 428.282 259.425C428.222 259.919 428.062 260.396 427.813 260.828C427.572 261.245 427.248 261.608 426.86 261.894C426.473 262.181 426.031 262.386 425.562 262.495L394.942 269.776C394.446 269.893 393.931 269.904 393.43 269.808C392.93 269.711 392.456 269.508 392.04 269.214Z" fill="#F2C94C"/>
<path d="M418.639 192.738C428.44 192.738 436.385 184.797 436.385 175.001C436.385 165.204 428.44 157.263 418.639 157.263C408.838 157.263 400.892 165.204 400.892 175.001C400.892 184.797 408.838 192.738 418.639 192.738Z" fill="#FFB8B8"/>
<path d="M369.396 189.049L355.565 195.151C355.039 195.383 354.443 195.396 353.907 195.188C353.371 194.981 352.939 194.569 352.707 194.044L352.365 193.269C352.133 192.744 352.12 192.148 352.327 191.612C352.535 191.077 352.947 190.645 353.472 190.413L367.303 184.31C367.829 184.079 368.425 184.066 368.961 184.273C369.497 184.481 369.929 184.892 370.161 185.418L370.503 186.192C370.735 186.718 370.748 187.314 370.54 187.85C370.333 188.385 369.921 188.817 369.396 189.049Z" fill="#4F4F4F"/>
<path d="M374.453 198.437L360.623 204.539C360.097 204.771 359.5 204.784 358.964 204.577C358.428 204.369 357.997 203.958 357.764 203.432L357.422 202.658C357.191 202.132 357.177 201.536 357.385 201C357.593 200.465 358.004 200.033 358.53 199.801L372.36 193.699C372.886 193.467 373.483 193.454 374.019 193.662C374.555 193.869 374.986 194.281 375.219 194.806L375.561 195.58C375.792 196.106 375.806 196.702 375.598 197.238C375.391 197.773 374.979 198.205 374.453 198.437Z" fill="#4F4F4F"/>
<path d="M385.119 235.107L354.285 210.795C354.04 210.881 353.79 210.955 353.537 211.015C352.448 211.27 351.319 211.293 350.221 211.082C349.123 210.872 348.082 210.433 347.165 209.794C346.242 209.155 345.467 208.326 344.89 207.362C344.314 206.399 343.95 205.324 343.823 204.209C343.616 202.426 344.018 200.626 344.963 199.1C345.909 197.575 347.342 196.413 349.031 195.804C350.086 195.426 351.208 195.275 352.324 195.361C353.441 195.447 354.527 195.767 355.511 196.301C356.495 196.836 357.355 197.572 358.035 198.462C358.715 199.351 359.198 200.375 359.455 201.464C359.534 201.809 359.59 202.16 359.62 202.513L390.315 220.212L397.954 215.816L406.415 226.888L394.555 235.337C393.167 236.318 391.499 236.826 389.799 236.784C388.099 236.743 386.458 236.155 385.119 235.107Z" fill="#FFB8B8"/>
<path d="M410.178 230.337L392.585 218.379L400.853 206.675C401.951 205.121 403.563 204.005 405.404 203.524C407.246 203.043 409.198 203.228 410.917 204.046C412.655 204.874 414.04 206.296 414.821 208.056C415.602 209.815 415.728 211.795 415.176 213.639L410.178 230.337Z" fill="#F2C94C"/>
<path d="M412.132 172.359C407.571 175.479 401.582 178.686 396.924 175.363C393.865 173.182 392.901 169.142 394.141 165.596C396.372 159.22 402.501 156.413 408.362 154.262C415.98 151.465 424.276 149.24 432.141 151.243C440.006 153.246 446.957 160.857 445.538 168.844C444.396 175.268 438.334 180.612 439.194 187.079C440.06 193.587 447.384 197.013 453.849 198.176C460.314 199.34 467.548 199.713 472.195 204.355C478.122 210.276 476.642 220.859 471.064 227.11C465.487 233.362 457.071 236.195 448.916 238.122C438.11 240.674 426.424 242.015 416.161 237.78C405.899 233.544 397.913 222.141 400.886 211.449C402.142 206.933 405.1 203.116 407.958 199.4C410.817 195.684 413.712 191.798 414.803 187.239C415.711 183.44 415.039 179.029 412.518 176.179C412.06 175.68 411.771 175.049 411.694 174.376C411.617 173.703 411.755 173.023 412.089 172.434L412.132 172.359Z" fill="#2F2E41"/>
<path d="M78.8094 258.539C74.2365 260.145 69.3267 260.548 64.553 259.707C59.7793 258.867 55.3026 256.812 51.5542 253.74C42.008 245.732 39.0149 232.538 36.5796 220.321C34.1785 208.276 31.7775 196.231 29.3764 184.187L44.4571 194.565C55.3022 202.029 66.3916 209.732 73.9008 220.543C81.4099 231.354 84.6876 246.112 78.6543 257.81" fill="#F2C94C"/>
<path d="M77.5203 302.287C79.0466 291.175 80.6161 279.919 79.5455 268.688C78.5946 258.713 75.5499 248.97 69.3513 240.982C66.061 236.75 62.0574 233.124 57.5204 230.267C56.3374 229.52 55.2485 231.394 56.4264 232.138C64.2766 237.096 70.3485 244.419 73.7666 253.049C77.5418 262.647 78.1481 273.108 77.4975 283.304C77.1041 289.469 76.2703 295.594 75.43 301.711C75.3638 301.988 75.4051 302.279 75.5457 302.527C75.6862 302.774 75.9154 302.959 76.187 303.044C76.4642 303.118 76.7595 303.081 77.0091 302.939C77.2587 302.798 77.4424 302.563 77.5203 302.287H77.5203Z" fill="#828282"/>
<path d="M62.8187 282.623C60.8574 285.603 58.1616 288.027 54.9908 289.663C51.8201 291.298 48.2813 292.09 44.7155 291.962C35.5514 291.527 27.9114 285.134 21.034 279.065L0.692078 261.114L14.1551 260.47C23.8369 260.007 33.7685 259.575 42.9901 262.559C52.2116 265.543 60.7163 272.725 62.4025 282.265" fill="#F2C94C"/>
<path d="M81.8339 308.675C74.4872 295.682 65.9658 281.242 50.7394 276.627C46.5057 275.348 42.0664 274.89 37.6606 275.277C36.272 275.397 36.6188 277.536 38.0048 277.417C45.39 276.804 52.7608 278.753 58.8765 282.936C64.7616 286.94 69.3437 292.506 73.222 298.409C75.5976 302.024 77.7255 305.794 79.8538 309.558C80.5339 310.76 82.522 309.892 81.8339 308.675Z" fill="#828282"/>
<path d="M93.6053 322.351C93.3578 319.484 92.328 316.74 90.6281 314.418C88.9282 312.096 86.6233 310.284 83.9646 309.181V301.669H71.3599V309.418C68.832 310.575 66.6565 312.382 65.0551 314.654C63.4537 316.926 62.4838 319.582 62.2442 322.351L59.2803 356.787H96.5692L93.6053 322.351Z" fill="#828282"/>
</g>
<defs>
<clipPath id="clip0_1909:432">
<rect width="500" height="361" fill="white"/>
</clipPath>
</defs>
</svg>
