<svg width="32" height="32" viewBox="0 0 32 32" fill="none" xmlns="http://www.w3.org/2000/svg">
<g clip-path="url(#clip0_1909:585)">
<path fill-rule="evenodd" clip-rule="evenodd" d="M19.9505 22.152C20.9411 22.5854 21.3125 21.6774 21.3125 21.6774L23.9333 8.51157C23.9127 7.62421 22.7158 8.16075 22.7158 8.16075L8.04349 13.9182C8.04349 13.9182 7.34186 14.1659 7.40377 14.5992C7.46568 15.0326 8.02285 15.2389 8.02285 15.2389L11.7167 16.4771C11.7167 16.4771 12.8311 20.1297 13.0581 20.8313C13.2644 21.5123 13.4502 21.533 13.4502 21.533C13.6565 21.6155 13.8422 21.471 13.8422 21.471L16.236 19.3043L19.9505 22.152ZM20.5904 10.8429C20.5904 10.8429 21.1063 10.5334 21.0856 10.8429C21.0856 10.8429 21.1682 10.8842 20.8999 11.1731C20.6523 11.4207 14.8123 16.6623 14.0281 17.3639C13.9662 17.4052 13.9249 17.4671 13.9249 17.5496L13.6979 19.4894C13.6566 19.6958 13.3884 19.7164 13.3265 19.5307L12.3566 16.3527C12.3153 16.2289 12.3566 16.0845 12.4804 16.0019L20.5904 10.8429Z" fill="white"/>
</g>
<defs>
<clipPath id="clip0_1909:585">
<rect width="32" height="32" fill="white"/>
</clipPath>
</defs>
</svg>
